<svg xmlns="http://www.w3.org/2000/svg" viewBox="0 0 200 39.89702"><defs><style>.cls-1{fill:#fff;}.cls-2{fill:#f2ab14;}</style></defs><title>Asset 6</title><g id="Layer_2" data-name="Layer 2"><g id="DESKTOP"><g id="Global_Nav" data-name="Global Nav"><path class="cls-1" d="M162.68711,19.326c-2.67161.927-5.37942,2.42323-5.37942,4.45379a1.864,1.864,0,0,0,1.99572,2.03175,4.714,4.714,0,0,0,3.3837-1.782V19.326Zm-9.29934-4.24011a6.03,6.03,0,0,1,2.388-4.63148A8.05493,8.05493,0,0,1,160.58622,9.065c4.77424,0,6.59065,2.422,6.59065,5.87918V27.23568a5.73845,5.73845,0,0,0,.25,1.56822h-4.48975c-.10691-.49829-.17758-1.10476-.3207-1.88889a7.396,7.396,0,0,1-5.34494,2.24554c-2.70782,0-4.45354-1.49613-4.45354-4.63267,0-4.48863,4.276-6.41359,9.86918-8.08749V15.01508a2.09724,2.09724,0,0,0-2.3147-2.31641,2.411,2.411,0,0,0-2.494,2.38718Z"/><path class="cls-1" d="M179.73663,19.326c-2.67248.927-5.3803,2.42323-5.3803,4.45379a1.864,1.864,0,0,0,1.99575,2.03175,4.71578,4.71578,0,0,0,3.38455-1.782V19.326Zm-9.29933-4.24011a6.02926,6.02926,0,0,1,2.3871-4.63148A8.05671,8.05671,0,0,1,177.63486,9.065c4.77425,0,6.59153,2.422,6.59153,5.87918V27.23568a5.77055,5.77055,0,0,0,.24914,1.56822h-4.48976c-.10691-.49829-.1776-1.10476-.3207-1.88889a7.39547,7.39547,0,0,1-5.34409,2.24554c-2.70781,0-4.4544-1.49613-4.4544-4.63267,0-4.48863,4.276-6.41359,9.87-8.08749V15.01508a2.0975,2.0975,0,0,0-2.31557-2.31641,2.41152,2.41152,0,0,0-2.494,2.38718Z"/><path class="cls-1" d="M196.15249,15.3357c-.60691-1.782-1.74572-2.637-3.10092-2.637a1.74375,1.74375,0,0,0-1.81643,1.746c0,2.99368,8.76485,3.06445,8.76485,8.83674,0,3.8474-2.70781,5.87915-6.44842,5.87915-2.70782,0-5.13114-.67724-7.30446-5.52251l4.026-1.10468c.39137,1.81676,1.49656,2.99239,3.2785,2.99239,1.35348,0,2.17332-.6412,2.17332-1.70994,0-3.7057-8.76571-2.81473-8.76571-9.33511,0-3.66966,2.95782-5.41565,6.12859-5.41565a6.9638,6.9638,0,0,1,6.77,4.84527l-3.70526,1.42539Z"/><polygon class="cls-1" points="145.081 0.085 145.081 11.81 136.998 11.81 136.998 0.085 132.051 0.085 132.051 28.787 136.998 28.787 136.998 16.057 145.081 16.057 145.081 28.787 150.028 28.787 150.028 0.085 145.081 0.085 145.081 0.085"/><path class="cls-2" d="M10.06936,14.32292c-1.32383,0-1.702.18966-1.702,1.22994v8.46139c0,.42639.1413,3.07266.56682,3.546.5202.56706,2.03254.898,3.546.898,3.592,0,6.23961-2.45851,6.23961-6.57073,0-4.25529-3.49792-7.56466-8.65042-7.56466M11.6285,1.1343c-3.11988,0-3.26119.42528-3.26119,1.37058V12.76375c0,.7563.6141.66182,1.74883.66182a38.09184,38.09184,0,0,1,4.869.28345c1.37056-1.03975,2.93128-1.9383,2.93128-5.67245,0-2.36364-1.98558-6.90228-6.28791-6.90228m.61494,28.17462c-1.98555,0-3.97111-.47251-6.05116-.47251-1.98534,0-3.02517.18895-4.53777.18895-.47293,0-.80373-.04749-.80373-.51957,0-.47345.2835-.56785,1.32333-.56785,2.12733,0,2.22228-.09413,2.22228-.80268V5.389c0-3.73417-.75719-4.15974-2.08005-4.15974C.18853,1.22925,0,1.18158,0,.61452,0,.28353.14125.23628.94486.23628c1.466,0,2.93107.04725,4.58589.04725C6.5233.28353,8.79275,0,13.04684,0c6.14606,0,8.79328,3.16714,8.79328,6.52325a6.98452,6.98452,0,0,1-3.54567,6.051,16.25122,16.25122,0,0,0-1.93875,1.27658c0,.0945.89855.33068,1.84425.80347,2.22136,1.13478,5.01115,2.74212,5.01115,6.85524,0,5.29426-4.39639,7.79938-10.96765,7.79938"/><path class="cls-2" d="M31.9492,12.6365c-3.12488,0-4.112,4.68676-4.112,5.26276,0,.20581,0,.24667.49382.24667a51.93325,51.93325,0,0,0,7.44179-1.02839c.45259-.082.49387-.1644.49387-.411,0-1.02773-2.42583-4.07-4.31751-4.07m6.33188,4.93338a63.85494,63.85494,0,0,1-9.86755,1.43936c-.65872.04154-.78208.24683-.78208,1.19261,0,5.67445,4.39949,7.19541,7.52543,7.19541a10.99375,10.99375,0,0,0,4.44035-.98692c.20568,0,.329.24665.329.32933A11.65211,11.65211,0,0,1,33.1,29.53531c-3.37087,0-8.38754-1.64485-8.38754-8.51106,0-5.79775,3.90649-9.252,7.64753-9.252a9.14249,9.14249,0,0,1,6.25011,3.08429A6.267,6.267,0,0,1,39.96734,16.994c0,.16482-.57537.32925-1.68626.57587"/><path class="cls-2" d="M53.33046,16.45967c-.57572,0-1.06909-1.68571-3.12524-1.68571-2.38479,0-3.28905.98682-3.28905,2.71352V25.958c0,2.01465.12285,2.01465,3.16568,2.01465,1.06907,0,1.10959.12352,1.10959.49361,0,.45277-.04052.41147-1.10959.41147-.57614,0-3.3305-.20576-4.64664-.20576-1.39789,0-2.79551.20576-3.37111.20576-.94625,0-1.02865,0-1.02865-.41147s.04136-.49361,1.02865-.49361c1.68554,0,1.80881-.04086,1.80881-.61673V16.08977c0-2.79584.082-2.87763-2.21979-2.87763-.74095,0-.74095.04083-.74095-.4115,0-.49379-.041-.61715.65855-.61715,1.39762,0,2.17892.082,3.00135.082.65742,0,1.43841-.20526,2.09737-.20526.16432,0,.32907.12328.32907.45275,0,.20571-.08233,1.11013-.08233,1.23341,0,.36993.04044.65767.20526.65767.61709,0,2.54946-2.13857,4.48141-2.13857.74095,0,2.63142.9051,2.63142,1.97416,0,.411-.6576,2.22-.9038,2.22"/><path class="cls-2" d="M72.779,29.0421c-.49328,0-1.02761-.04083-1.39762-.04083-.49328,0-1.7271.04083-2.30194.04083-.7413,0-1.11131-1.02862-2.838-3.00186S62.78669,21.4761,62.54,21.4761a7.58552,7.58552,0,0,0-1.439.86335c-.65767.41142-1.23338.69987-1.23338,1.07v2.59c0,1.93194-.08232,1.93194,2.46669,1.93194.94571,0,1.11.20568,1.11.53491,0,.41147-.20527.41147-1.11.41147-.61665,0-2.50764-.08216-3.82336-.08216-1.39856,0-2.91954.08216-3.49523.08216-.94572,0-1.19237-.04128-1.19237-.41147,0-.32923.2057-.53491,1.19237-.53491,1.39768,0,1.76812,0,1.76812-.61673,0-1.19211.12328-13.36291.12328-22.03853,0-2.919-.329-3.28918-1.439-3.28918-1.68574,0-1.85-.12331-1.85-.41186,0-.411.08189-.57561.53431-.57561A25.19017,25.19017,0,0,0,59.90852.09495c.20579,0,.28811.12328.28811.37014,0,.53431-.08232,2.26182-.08232,3.57745,0,6.24969-.24674,10.85489-.24674,17.55667,0,.16493.04095.28837.16475.28837,1.0277,0,5.30477-3.7825,6.6205-5.01686,1.60383-1.521,1.97331-2.21986,1.97331-3.08316,0-.65788-.12327-.74009-1.93237-.74009-.61665,0-.82235-.08243-.82235-.45251,0-.32949.2057-.41189.74-.41189.41044,0,1.19236.12352,1.68565.12352.53432,0,2.91954-.12352,3.41293-.12352.329,0,.49329.04154.49329.16482a12.54449,12.54449,0,0,1-2.672,3.37195c-2.0566,2.015-4.60561,3.8237-4.60561,4.11181,0,.37019.73994,1.15125,3.61808,4.60544,1.399,1.6854,2.7142,3.69992,4.11191,3.69992.98666,0,1.3157.20623,1.3157.53494,0,.2875-.28809.37017-1.19243.37017"/><path class="cls-2" d="M79.89284,12.6365c-3.12437,0-4.111,4.68676-4.111,5.26276,0,.20581,0,.24667.49338.24667a51.95792,51.95792,0,0,0,7.44189-1.02839c.45191-.082.49337-.1644.49337-.411,0-1.02773-2.42574-4.07-4.31759-4.07M86.226,17.56987a63.87778,63.87778,0,0,1-9.86849,1.43936c-.65812.04154-.7814.24683-.7814,1.19261,0,5.67445,4.39907,7.19541,7.52388,7.19541a11.00331,11.00331,0,0,0,4.44156-.98692c.20517,0,.32845.24665.32845.32933a11.65246,11.65246,0,0,1-6.82531,2.79565c-3.37188,0-8.38812-1.64485-8.38812-8.51106,0-5.79775,3.9062-9.252,7.64766-9.252a9.14568,9.14568,0,0,1,6.25023,3.08429A6.26769,6.26769,0,0,1,87.91136,16.994c0,.16482-.57586.32925-1.68537.57587"/><path class="cls-2" d="M95.27878,28.8777c-.61727,0-1.52073-.08258-2.26126-.08258-1.3983,0-3.5768.08258-4.15268.08258-.94658,0-1.02848-.08258-1.02848-.41094,0-.288.04138-.535,1.02848-.535,1.68538,0,2.38453.04086,2.38453-.69892V4.57689c0-2.59021-.24657-2.59021-2.09573-2.59021-.74053,0-1.15262-.08177-1.15262-.5352,0-.49321.32932-.45191,1.02848-.49321A21.84991,21.84991,0,0,0,94.046.05383c.20518,0,.41035.20571.41035.65767,0,.49334-.20517,1.97432-.20517,3.20755,0,15.66588-.20518,18.91362-.20518,20.10668,0,3.41239.28708,3.86474,1.02761,3.86474,2.05522,0,1.97332.24612,1.97332.57629,0,.41094-.28794.41094-1.76814.41094"/><path class="cls-2" d="M103.60912,12.6365c-3.1242,0-4.11216,4.68676-4.11216,5.26276,0,.20581,0,.24667.49311.24667a51.91692,51.91692,0,0,0,7.44328-1.02839c.45174-.082.494-.1644.494-.411,0-1.02773-2.42765-4.07-4.3182-4.07m6.33289,4.93338a63.85563,63.85563,0,0,1-9.86832,1.43936c-.65776.04154-.7819.24683-.7819,1.19261,0,5.67445,4.4001,7.19541,7.5243,7.19541a10.98606,10.98606,0,0,0,4.4406-.98692c.20605,0,.32932.24665.32932.32933a11.65075,11.65075,0,0,1-6.82514,2.79565c-3.37248,0-8.389-1.64485-8.389-8.51106,0-5.79775,3.907-9.252,7.64844-9.252a9.14215,9.14215,0,0,1,6.25012,3.08429A6.26779,6.26779,0,0,1,111.6274,16.994c0,.16482-.57673.32925-1.68538.57587"/><path class="cls-2" d="M128.56741,13.17072c-.90433,0-2.71385,4.93435-5.96133,12.82866-2.59143,6.29031-4.44148,9.6214-5.757,12.33537-.45174.90466-.94571.94551-1.8509,1.06906a21.1158,21.1158,0,0,1-2.42506.49321c-.7,0-1.11036-.20526-1.11036-.411,0-.24662,1.93194-.49316,3.33024-2.26166,1.4802-1.85012,5.01649-6.7022,5.01649-7.93524,0-.4527-3.28885-8.06-5.551-13.40506-1.02846-2.46666-1.3164-2.6724-2.05607-2.6724-.82243,0-.863-.04094-.863-.411,0-.36985.12328-.576.863-.576,1.15175,0,1.43968.082,2.42591.082,1.15088,0,2.59056-.12328,3.90611-.12328.863,0,1.02761.16459,1.02761.61734,0,.37009-.16465.411-1.02761.411-.98621,0-1.23365.24686-1.23365,1.19237,0,1.19253,1.069,2.63151,3.53629,8.964.32932.86338.8233,1.56227.98711,1.56227.28792,0,.53449-.57587,1.19225-2.50868.98623-2.95987,2.46729-7.23653,2.46729-7.81191,0-1.2332,0-1.47985-1.3983-1.47985-1.27418,0-1.43883,0-1.43883-.41136,0-.5352.12328-.5352.863-.5352,1.11036,0,1.85.08216,2.96127.08216.61639,0,1.7259-.16414,2.30177-.16414.65777,0,.86381.04086.86381.49363,0,.37009-.57587.57577-1.069.57577"/></g></g></g></svg>