<svg xmlns="http://www.w3.org/2000/svg" viewBox="0 0 1606.82 333.95"><defs><style>.cls-1{fill:#c3832b;}.cls-2{fill:#003262;}</style></defs><g id="Layer_2" data-name="Layer 2"><g id="LOCKUP"><path class="cls-1" d="M1158.21,243.31V51.37a.2.2,0,0,1,.2-.21h19.3a.2.2,0,0,1,.2.21V224.84a.2.2,0,0,0,.2.2h94.69a.21.21,0,0,1,.2.21v18.06a.2.2,0,0,1-.2.2H1158.41A.2.2,0,0,1,1158.21,243.31Z"/><path class="cls-1" d="M1375.73,226.58c-9.54,11.7-24.62,20.93-41.24,20.93-25.85,0-44.62-16.62-44.62-39.08,0-25.52,20-46.43,85.36-50.16a.2.2,0,0,0,.2-.2V150c0-22.16-9.85-33.54-33.24-33.54-15.29,0-33.91,7.89-45.92,16.75a.2.2,0,0,1-.31-.12l-4.21-17.42a.19.19,0,0,1,.08-.21c12.63-8.9,33.79-16.85,52.21-16.85,32.62,0,50.77,14.77,50.47,50.47v67.7c0,10.1,1.82,14.42,13.93,14.17a.2.2,0,0,1,.21.21l-1.2,15.3a.22.22,0,0,1-.2.19c-18.35,1.17-28.45-6.21-30.59-20Zm-.3-55.17a.21.21,0,0,0-.23-.2c-48.15,5.55-65.33,16.32-65.33,35.06,0,15.08,12.31,24.62,28.93,24.62,15,0,28-8.58,36.58-18.41a.19.19,0,0,0,0-.13Z"/><path class="cls-1" d="M1454.51,244l-43-141.16a.2.2,0,0,1,.2-.26h19.88a.21.21,0,0,1,.2.15l32.39,111.55a.2.2,0,0,0,.39,0L1501,103a.2.2,0,0,1,.19-.14h16.95a.2.2,0,0,1,.19.13l38.2,111.87a.2.2,0,0,0,.39,0l29-112.14a.19.19,0,0,1,.19-.15h20.51a.2.2,0,0,1,.19.26L1565.07,244a.19.19,0,0,1-.19.15h-16.63a.2.2,0,0,1-.19-.14l-38.23-113.17a.2.2,0,0,0-.38,0L1471.21,244a.2.2,0,0,1-.19.14H1454.7A.19.19,0,0,1,1454.51,244Z"/><path class="cls-2" d="M608.13,235.52c-11.69,0-22.7-16.85-34.42-31-24.08-28.91-30.28-35.45-30.28-38.54,0-2.42,21.34-17.56,38.54-34.42,10.68-10.32,22.38-25.13,22.38-28.23,0-1-1.38-1.38-4.12-1.38-4.14,0-24.1,1-28.58,1-4.13,0-10.67-1-14.12-1-4.45,0-6.18.69-6.18,3.44,0,3.11,1.73,3.8,6.89,3.8,15.13,0,16.16.68,16.16,6.2,0,7.21-3.09,13.06-16.52,25.8-11,10.32-46.8,42-55.41,42-1,0-1.37-1-1.37-2.41,0-56.08,2.06-94.64,2.06-146.95,0-11,.69-25.47.69-29.94,0-2.07-.69-3.1-2.4-3.1-3.1,0-23.41,7.57-48.19,7.57-3.78,0-4.47,1.39-4.47,4.83,0,2.41,1.37,3.43,15.48,3.43,9.29,0,12.05,3.1,12.05,27.54,0,72.62-1,174.5-1,184.47,0,5.15-3.09,5.15-14.8,5.15-8.25,0-10,1.73-10,4.48,0,3.1,2.07,3.45,10,3.45,4.82,0,17.56-.69,29.26-.69,11,0,26.84.69,32,.69,7.57,0,9.29,0,9.29-3.45,0-2.75-1.37-4.48-9.29-4.48-21.34,0-20.65,0-20.65-16.16V195.94c0-3.1,4.81-5.51,10.32-8.95,5.86-3.79,10.67-7.22,12.05-7.22,2.06,0,16.53,21.68,31,38.2s17.56,25.12,23.75,25.12c4.82,0,15.16-.34,19.28-.34,3.09,0,7.57.34,11.7.34,7.57,0,10-.68,10-3.08,0-2.76-2.75-4.49-11-4.49m135.67-1.73c-8.27,0-8.6,2.07-8.6,4.48,0,2.76.69,3.45,8.6,3.45,4.82,0,23.06-.69,34.76-.69,6.2,0,13.77.69,18.93.69,12.4,0,14.8,0,14.8-3.45,0-2.75.69-4.81-16.52-4.81-6.2,0-8.6-3.8-8.6-32.35,0-10,1.72-37.17,1.72-168.3,0-10.32,1.73-22.71,1.73-26.85,0-3.79-1.73-5.5-3.45-5.5-2.06,0-15.15,5.85-42,7.57-5.85.34-8.61,0-8.61,4.13,0,3.78,3.45,4.47,9.63,4.47,15.49,0,17.55,0,17.55,21.69V228c0,6.19-5.84,5.84-20,5.84m123.42-128c15.83,0,36.14,25.46,36.14,34.06,0,2.06-.34,2.76-4.13,3.43-25.82,4.14-44.4,8.62-62.29,8.62-4.14,0-4.14-.35-4.14-2.06,0-4.82,8.26-44.05,34.42-44.05m9.64,141.44c27.88,0,57.13-21.69,57.13-23.41,0-.68-1-2.73-2.76-2.73-2.07,0-14.44,8.25-37.17,8.25-26.15,0-63-12.74-63-60.23,0-7.92,1-9.64,6.53-10a533.18,533.18,0,0,0,82.6-12.05c9.29-2.06,14.1-3.45,14.1-4.82,0-2.76-5.49-11-11.34-17.89-12.39-14.46-34.42-25.82-52.32-25.82-31.31,0-64,28.91-64,77.44,0,57.48,42,71.24,70.21,71.24M668.71,105.78c15.84,0,36.15,25.46,36.15,34.06,0,2.06-.35,2.76-4.14,3.43-25.82,4.14-44.39,8.62-62.29,8.62-4.13,0-4.13-.35-4.13-2.06,0-4.82,8.26-44.05,34.41-44.05m9.65,141.44c27.87,0,57.13-21.69,57.13-23.41,0-.68-1-2.73-2.76-2.73-2.07,0-14.46,8.25-37.17,8.25-26.16,0-63-12.74-63-60.23,0-7.92,1-9.64,6.54-10a533.39,533.39,0,0,0,82.6-12.05c9.28-2.06,14.11-3.45,14.11-4.82,0-2.76-5.51-11-11.36-17.89-12.4-14.46-34.42-25.82-52.31-25.82-31.33,0-64,28.91-64,77.44,0,57.48,42,71.24,70.23,71.24m-249.88-8.95c0-3.09-.35-4.13-9.29-4.13-25.46,0-26.5,0-26.5-16.86V146.37c0-14.43,7.57-22.7,27.53-22.7,17.21,0,21.34,14.11,26.16,14.11,2.06,0,7.57-15.14,7.57-18.59,0-8.94-15.84-16.52-22-16.52-16.17,0-32.35,17.9-37.51,17.9-1.38,0-1.72-2.41-1.72-5.5,0-1,.69-8.61.69-10.33,0-2.76-1.39-3.79-2.75-3.79-5.51,0-12.06,1.72-17.56,1.72-6.88,0-13.42-.69-25.12-.69-5.85,0-5.51,1-5.51,5.17,0,3.79,0,3.45,6.2,3.45,19.27,0,18.58.68,18.58,24.07V229c0,4.8-1,5.15-15.14,5.15-8.27,0-8.62.69-8.62,4.13s.7,3.45,8.62,3.45c4.82,0,16.52-1.71,28.22-1.71,11,0,34.07,1.71,38.89,1.71,8.94,0,9.29.35,9.29-3.45M267.42,105.78c15.83,0,36.13,25.46,36.13,34.06,0,2.06-.34,2.76-4.14,3.43-25.8,4.14-44.39,8.62-62.28,8.62-4.13,0-4.13-.35-4.13-2.06,0-4.82,8.26-44.05,34.42-44.05m9.63,141.44c27.87,0,57.14-21.69,57.14-23.41,0-.68-1-2.73-2.75-2.73-2.07,0-14.46,8.25-37.18,8.25-26.16,0-63-12.74-63-60.23,0-7.92,1-9.64,6.54-10a533,533,0,0,0,82.59-12.05c9.3-2.06,14.11-3.45,14.11-4.82,0-2.76-5.49-11-11.35-17.89-12.4-14.46-34.41-25.82-52.31-25.82-31.32,0-64,28.91-64,77.44,0,57.48,42,71.24,70.21,71.24m-172.6-9c-12.66,0-25.31-2.77-29.68-7.52C71.22,226.72,70,204.57,70,201V130.19c0-8.71,3.16-10.3,14.24-10.3,43.12,0,72.41,27.7,72.41,63.31,0,34.43-22.16,55-52.24,55M70,21c0-7.92,1.18-11.49,27.28-11.49,36,0,52.64,38,52.64,57.79,0,31.19-13,38.74-24.45,47.42a.22.22,0,0,1-.17,0,319.84,319.84,0,0,0-40.66-2.37c-9.51,0-14.64.79-14.64-5.54Zm82.29,101.67c-7.92-3.94-15.43-5.92-15.43-6.7,0-1.19,8.7-5.56,16.22-10.69C165.79,96.55,182.8,82.7,182.8,54.6S160.64,0,109.2,0C73.59,0,54.6,2.38,46.29,2.38,32.44,2.38,20.17,2,7.9,2,1.18,2,0,2.38,0,5.15,0,9.9,1.58,10.3,19.38,10.3c11.08,0,17.41,3.56,17.41,34.82v182c0,5.93-.8,6.73-18.59,6.73-7.47,0-10.28.58-10.93,3.24a4.88,4.88,0,0,0,4.83,5.84c13.63.16,22.35-1.57,39.73-1.57s34,4,50.65,4c55,0,91.79-21,91.79-65.29,0-34.43-23.34-47.89-41.94-57.39m925.52-21.35c-4.82,0-14.12,1.37-19.28,1.37-9.3,0-15.49-.69-24.78-.69-6.19,0-7.22,0-7.22,4.48,0,3.44,1.37,3.44,12,3.44,11.7,0,11.7,2.07,11.7,12.39,0,4.82-12.39,40.61-20.65,65.38-5.51,16.19-7.57,21-10,21-1.38,0-5.51-5.85-8.26-13.07-20.66-53-29.59-65-29.59-75,0-7.91,2-10,10.31-10,7.23,0,8.61-.35,8.61-3.45,0-3.79-1.38-5.17-8.61-5.17-11,0-23,1-32.69,1-8.26,0-10.68-.68-20.3-.68-6.2,0-7.23,1.72-7.23,4.82s.34,3.45,7.23,3.45c6.19,0,8.6,1.71,17.21,22.36,18.93,44.74,46.45,108.41,46.45,112.2,0,10.32-29.59,50.93-42,66.42C949.12,326.39,933,328.45,933,330.51c0,1.73,3.45,3.44,9.29,3.44,7.57,0,10-2.75,20.3-4.12,7.58-1,11.72-1.38,15.5-8.95,11-22.73,26.5-50.6,48.19-103.25,27.18-66.09,42.32-107.38,49.9-107.38,4.13,0,8.94-1.72,8.94-4.82,0-3.8-1.72-4.13-7.22-4.13"/></g></g></svg>