<svg xmlns="http://www.w3.org/2000/svg" xmlns:xlink="http://www.w3.org/1999/xlink" viewBox="0 0 1453.5 584.38"><defs><style>.adcf18f4-1b37-4bfe-9e0e-43d0b003ee1f{fill:none;}.a0b3e43b-9b60-43ab-af88-5b94ca871647{fill:#005499;}.b212f897-2777-429e-89a0-2590a920e68a{clip-path:url(#a30796f0-664c-4e1a-80db-e80b03926ee8);}.b2cc0592-14a4-45b8-bd2a-7e5085dde44e{fill:#55b9e5;}</style><clipPath id="a30796f0-664c-4e1a-80db-e80b03926ee8" transform="translate(96.25 60.3)"><path class="adcf18f4-1b37-4bfe-9e0e-43d0b003ee1f" d="M-96.25,395.7s1093.5-303,1453.5-265.5L1190.75-60.3,16.25,4.2Z"/></clipPath></defs><g id="ee36a894-5d68-49f2-851b-0301596326d6" data-name="图层 2"><path class="a0b3e43b-9b60-43ab-af88-5b94ca871647" d="M199.94,515.57H195.8V493.82h-7.44v-3.55h19v3.55h-7.44Z" transform="translate(96.25 60.3)"/><path class="a0b3e43b-9b60-43ab-af88-5b94ca871647" d="M226.77,515.57h-4.08V503.8a5.1,5.1,0,0,0-.9-3.3,3.41,3.41,0,0,0-2.82-1.09,4.5,4.5,0,0,0-3.77,1.53q-1.2,1.53-1.2,5.13v9.5h-4.07V488.65H214v6.83a31.36,31.36,0,0,1-.21,3.51h.26a5.62,5.62,0,0,1,2.31-2.14,7.43,7.43,0,0,1,3.45-.76q7,0,7,7Z" transform="translate(96.25 60.3)"/><path class="a0b3e43b-9b60-43ab-af88-5b94ca871647" d="M239.9,515.91a9.23,9.23,0,0,1-7-2.6,9.89,9.89,0,0,1-2.52-7.17,10.87,10.87,0,0,1,2.33-7.37,8.07,8.07,0,0,1,6.42-2.68,7.86,7.86,0,0,1,6,2.3,8.76,8.76,0,0,1,2.2,6.33v2.2H234.59a6.29,6.29,0,0,0,1.5,4.28,5.25,5.25,0,0,0,4,1.5,15,15,0,0,0,3.16-.32,16.93,16.93,0,0,0,3.14-1.07v3.31a13,13,0,0,1-3,1A18.25,18.25,0,0,1,239.9,515.91Zm-.75-16.74a4.1,4.1,0,0,0-3.1,1.22,5.87,5.87,0,0,0-1.39,3.59h8.68a5.31,5.31,0,0,0-1.14-3.6A3.91,3.91,0,0,0,239.15,499.17Z" transform="translate(96.25 60.3)"/><path class="a0b3e43b-9b60-43ab-af88-5b94ca871647" d="M270.59,493.46A6.82,6.82,0,0,0,265,496a10.83,10.83,0,0,0-2,7q0,4.65,2,7a7,7,0,0,0,5.69,2.38,14.46,14.46,0,0,0,3.11-.32c1-.21,2.05-.48,3.13-.82v3.55a19,19,0,0,1-6.75,1.12q-5.55,0-8.53-3.36t-3-9.63A15.58,15.58,0,0,1,260,496a10.35,10.35,0,0,1,4.18-4.54,12.62,12.62,0,0,1,6.42-1.57,15.85,15.85,0,0,1,7.16,1.63L276.3,495a22.47,22.47,0,0,0-2.71-1.07A9.9,9.9,0,0,0,270.59,493.46Z" transform="translate(96.25 60.3)"/><path class="a0b3e43b-9b60-43ab-af88-5b94ca871647" d="M289.32,515.91a9.25,9.25,0,0,1-7-2.6,9.89,9.89,0,0,1-2.52-7.17,10.83,10.83,0,0,1,2.34-7.37,8.05,8.05,0,0,1,6.42-2.68,7.85,7.85,0,0,1,6,2.3,8.76,8.76,0,0,1,2.2,6.33v2.2H284a6.29,6.29,0,0,0,1.51,4.28,5.21,5.21,0,0,0,4,1.5,15,15,0,0,0,3.16-.32,16.93,16.93,0,0,0,3.14-1.07v3.31a12.82,12.82,0,0,1-3,1A18.25,18.25,0,0,1,289.32,515.91Zm-.74-16.74a4.13,4.13,0,0,0-3.11,1.22,5.87,5.87,0,0,0-1.39,3.59h8.69a5.37,5.37,0,0,0-1.15-3.6A3.9,3.9,0,0,0,288.58,499.17Z" transform="translate(96.25 60.3)"/><path class="a0b3e43b-9b60-43ab-af88-5b94ca871647" d="M317.33,515.57h-4.08V503.8a5.16,5.16,0,0,0-.89-3.3,3.45,3.45,0,0,0-2.83-1.09,4.5,4.5,0,0,0-3.77,1.52q-1.2,1.53-1.2,5.1v9.54H300.5V496.43h3.18l.57,2.51h.21a5.61,5.61,0,0,1,2.46-2.11,8.13,8.13,0,0,1,3.52-.74q6.9,0,6.89,7Z" transform="translate(96.25 60.3)"/><path class="a0b3e43b-9b60-43ab-af88-5b94ca871647" d="M329.23,512.63a10,10,0,0,0,3-.47v3.06a8.38,8.38,0,0,1-1.74.5,12.28,12.28,0,0,1-2.21.19q-5.77,0-5.78-6.09V499.51h-2.61v-1.8l2.8-1.49,1.39-4.05h2.51v4.26H332v3.08h-5.45v10.24a2.88,2.88,0,0,0,.73,2.18A2.72,2.72,0,0,0,329.23,512.63Z" transform="translate(96.25 60.3)"/><path class="a0b3e43b-9b60-43ab-af88-5b94ca871647" d="M343.5,515.91a9.25,9.25,0,0,1-7-2.6,9.89,9.89,0,0,1-2.52-7.17,10.83,10.83,0,0,1,2.34-7.37,8.07,8.07,0,0,1,6.42-2.68,7.87,7.87,0,0,1,6,2.3,8.79,8.79,0,0,1,2.19,6.33v2.2H338.19a6.29,6.29,0,0,0,1.51,4.28,5.21,5.21,0,0,0,4,1.5,15,15,0,0,0,3.16-.32,16.68,16.68,0,0,0,3.14-1.07v3.31a12.67,12.67,0,0,1-3,1A18.1,18.1,0,0,1,343.5,515.91Zm-.74-16.74a4.13,4.13,0,0,0-3.11,1.22,5.93,5.93,0,0,0-1.39,3.59H347a5.37,5.37,0,0,0-1.15-3.6A3.89,3.89,0,0,0,342.76,499.17Z" transform="translate(96.25 60.3)"/><path class="a0b3e43b-9b60-43ab-af88-5b94ca871647" d="M364.38,496.09a9.55,9.55,0,0,1,2,.17l-.4,3.79a7.64,7.64,0,0,0-1.8-.21,5.2,5.2,0,0,0-3.95,1.59,5.76,5.76,0,0,0-1.52,4.14v10h-4.06V496.43h3.18l.54,3.38h.2a7.61,7.61,0,0,1,2.49-2.72A5.88,5.88,0,0,1,364.38,496.09Z" transform="translate(96.25 60.3)"/><path class="a0b3e43b-9b60-43ab-af88-5b94ca871647" d="M387,499.51h-4.67v16.06h-4.08V499.51h-3.15v-1.9l3.15-1.25v-1.24a7,7,0,0,1,1.59-5,6.5,6.5,0,0,1,4.86-1.63,13,13,0,0,1,4.22.7l-1.07,3.08a9.43,9.43,0,0,0-2.87-.48,2.31,2.31,0,0,0-2,.86,4.31,4.31,0,0,0-.63,2.57v1.24H387Z" transform="translate(96.25 60.3)"/><path class="a0b3e43b-9b60-43ab-af88-5b94ca871647" d="M406.33,506a10.44,10.44,0,0,1-2.4,7.31,8.61,8.61,0,0,1-6.7,2.63,9.13,9.13,0,0,1-4.74-1.21,8,8,0,0,1-3.17-3.47,12,12,0,0,1-1.1-5.26q0-4.67,2.38-7.27a8.69,8.69,0,0,1,6.74-2.61,8.43,8.43,0,0,1,6.57,2.67A10.29,10.29,0,0,1,406.33,506Zm-13.93,0c0,4.41,1.64,6.62,4.9,6.62s4.85-2.21,4.85-6.62-1.63-6.56-4.88-6.56a4.17,4.17,0,0,0-3.72,1.69A8.7,8.7,0,0,0,392.4,506Z" transform="translate(96.25 60.3)"/><path class="a0b3e43b-9b60-43ab-af88-5b94ca871647" d="M419.83,496.09a9.51,9.51,0,0,1,2,.17l-.4,3.79a7.52,7.52,0,0,0-1.8-.21,5.21,5.21,0,0,0-3.95,1.59,5.75,5.75,0,0,0-1.51,4.14v10h-4.07V496.43h3.18l.54,3.38h.21a7.5,7.5,0,0,1,2.48-2.72A5.89,5.89,0,0,1,419.83,496.09Z" transform="translate(96.25 60.3)"/><path class="a0b3e43b-9b60-43ab-af88-5b94ca871647" d="M437.4,505.46v10.11h-4.14v-25.3h7.15q4.89,0,7.25,1.84a6.56,6.56,0,0,1,2.35,5.53c0,3.15-1.64,5.4-4.91,6.73l7.14,11.2h-4.7l-6.06-10.11Zm0-3.42h2.87a6.54,6.54,0,0,0,4.19-1.08,3.89,3.89,0,0,0,1.3-3.18,3.42,3.42,0,0,0-1.41-3.08,7.7,7.7,0,0,0-4.22-.93H437.4Z" transform="translate(96.25 60.3)"/><path class="a0b3e43b-9b60-43ab-af88-5b94ca871647" d="M463,515.91a9.25,9.25,0,0,1-7-2.6,9.89,9.89,0,0,1-2.52-7.17,10.83,10.83,0,0,1,2.34-7.37,8.05,8.05,0,0,1,6.42-2.68,7.85,7.85,0,0,1,6,2.3,8.76,8.76,0,0,1,2.2,6.33v2.2H457.64a6.34,6.34,0,0,0,1.5,4.28,5.25,5.25,0,0,0,4,1.5,15,15,0,0,0,3.16-.32,16.93,16.93,0,0,0,3.14-1.07v3.31a12.82,12.82,0,0,1-3,1A18.25,18.25,0,0,1,463,515.91Zm-.74-16.74a4.13,4.13,0,0,0-3.11,1.22,5.87,5.87,0,0,0-1.39,3.59h8.68a5.31,5.31,0,0,0-1.14-3.6A3.9,3.9,0,0,0,462.21,499.17Z" transform="translate(96.25 60.3)"/><path class="a0b3e43b-9b60-43ab-af88-5b94ca871647" d="M487,510.12a5,5,0,0,1-2,4.3,9.76,9.76,0,0,1-5.85,1.49,13.68,13.68,0,0,1-6.14-1.16v-3.51a15,15,0,0,0,6.28,1.56q3.75,0,3.75-2.27a1.79,1.79,0,0,0-.41-1.21,5,5,0,0,0-1.37-1,22,22,0,0,0-2.65-1.18,12.27,12.27,0,0,1-4.47-2.56,4.72,4.72,0,0,1-1.17-3.32,4.36,4.36,0,0,1,2-3.82,9.42,9.42,0,0,1,5.38-1.35,15.31,15.31,0,0,1,6.39,1.36l-1.32,3.06a14.25,14.25,0,0,0-5.2-1.28c-2.15,0-3.22.62-3.22,1.84a1.83,1.83,0,0,0,.84,1.52,17.87,17.87,0,0,0,3.66,1.71,17.7,17.7,0,0,1,3.44,1.68,5,5,0,0,1,1.59,1.76A5,5,0,0,1,487,510.12Z" transform="translate(96.25 60.3)"/><path class="a0b3e43b-9b60-43ab-af88-5b94ca871647" d="M500.2,515.91a6.68,6.68,0,0,1-5.64-2.61h-.25c.17,1.62.25,2.6.25,2.94v7.84h-4.07V496.43h3.29c.09.36.28,1.21.57,2.56h.21a6.36,6.36,0,0,1,5.71-2.9,6.66,6.66,0,0,1,5.58,2.59q2,2.6,2,7.29t-2,7.31A6.68,6.68,0,0,1,500.2,515.91Zm-1-16.5a4.23,4.23,0,0,0-3.54,1.42,7.35,7.35,0,0,0-1.11,4.53V506a9,9,0,0,0,1.1,5.06,4.14,4.14,0,0,0,3.62,1.56,3.65,3.65,0,0,0,3.25-1.73,8.94,8.94,0,0,0,1.15-4.93,8.59,8.59,0,0,0-1.14-4.87A3.77,3.77,0,0,0,499.21,499.41Z" transform="translate(96.25 60.3)"/><path class="a0b3e43b-9b60-43ab-af88-5b94ca871647" d="M528.66,506a10.44,10.44,0,0,1-2.41,7.31,8.58,8.58,0,0,1-6.69,2.63,9.2,9.2,0,0,1-4.75-1.21,8,8,0,0,1-3.16-3.47,11.87,11.87,0,0,1-1.11-5.26,10.38,10.38,0,0,1,2.39-7.27,8.65,8.65,0,0,1,6.73-2.61,8.42,8.42,0,0,1,6.57,2.67A10.3,10.3,0,0,1,528.66,506Zm-13.93,0q0,6.62,4.89,6.62t4.85-6.62c0-4.38-1.63-6.56-4.88-6.56a4.16,4.16,0,0,0-3.71,1.69A8.61,8.61,0,0,0,514.73,506Z" transform="translate(96.25 60.3)"/><path class="a0b3e43b-9b60-43ab-af88-5b94ca871647" d="M549.28,515.57h-4.09V503.8a5.1,5.1,0,0,0-.89-3.3,3.42,3.42,0,0,0-2.83-1.09,4.52,4.52,0,0,0-3.77,1.52q-1.19,1.53-1.19,5.1v9.54h-4.07V496.43h3.19l.57,2.51h.2a5.73,5.73,0,0,1,2.46-2.11,8.18,8.18,0,0,1,3.53-.74q6.89,0,6.89,7Z" transform="translate(96.25 60.3)"/><path class="a0b3e43b-9b60-43ab-af88-5b94ca871647" d="M566.91,510.12a5,5,0,0,1-2,4.3,9.75,9.75,0,0,1-5.84,1.49,13.76,13.76,0,0,1-6.15-1.16v-3.51a15.09,15.09,0,0,0,6.28,1.56q3.76,0,3.76-2.27a1.8,1.8,0,0,0-.42-1.21,5,5,0,0,0-1.36-1,23.6,23.6,0,0,0-2.65-1.18,12.27,12.27,0,0,1-4.47-2.56,4.72,4.72,0,0,1-1.17-3.32,4.38,4.38,0,0,1,2-3.82,9.45,9.45,0,0,1,5.39-1.35,15.23,15.23,0,0,1,6.38,1.36l-1.31,3.06a14.29,14.29,0,0,0-5.21-1.28c-2.14,0-3.22.62-3.22,1.84a1.83,1.83,0,0,0,.84,1.52,17.87,17.87,0,0,0,3.66,1.71,17.41,17.41,0,0,1,3.44,1.68,5.09,5.09,0,0,1,1.6,1.76A5.16,5.16,0,0,1,566.91,510.12Z" transform="translate(96.25 60.3)"/><path class="a0b3e43b-9b60-43ab-af88-5b94ca871647" d="M570.17,491.36a2.26,2.26,0,0,1,.6-1.68,2.34,2.34,0,0,1,1.7-.59,2.07,2.07,0,0,1,2.27,2.27,2.22,2.22,0,0,1-.6,1.64,2.27,2.27,0,0,1-1.67.59,2.34,2.34,0,0,1-1.7-.59A2.22,2.22,0,0,1,570.17,491.36Zm4.31,24.21h-4.06V496.43h4.06Z" transform="translate(96.25 60.3)"/><path class="a0b3e43b-9b60-43ab-af88-5b94ca871647" d="M589.19,496.09a6.66,6.66,0,0,1,5.58,2.59q2,2.6,2,7.29c0,3.13-.67,5.58-2,7.32a7.37,7.37,0,0,1-11.26,0h-.28l-.75,2.27h-3V488.65h4.07v6.4c0,.47,0,1.17-.07,2.11s-.09,1.53-.11,1.78h.18A6.45,6.45,0,0,1,589.19,496.09Zm-1.06,3.32a4.14,4.14,0,0,0-3.54,1.44c-.72,1-1.09,2.58-1.11,4.84V506c0,2.33.36,4,1.1,5.06a4.14,4.14,0,0,0,3.62,1.56,3.68,3.68,0,0,0,3.28-1.71,9.12,9.12,0,0,0,1.11-4.95C592.59,501.58,591.11,499.41,588.13,499.41Z" transform="translate(96.25 60.3)"/><path class="a0b3e43b-9b60-43ab-af88-5b94ca871647" d="M604.67,515.57H600.6V488.65h4.07Z" transform="translate(96.25 60.3)"/><path class="a0b3e43b-9b60-43ab-af88-5b94ca871647" d="M618,515.91a9.25,9.25,0,0,1-7-2.6,9.89,9.89,0,0,1-2.52-7.17,10.83,10.83,0,0,1,2.34-7.37,8.07,8.07,0,0,1,6.42-2.68,7.89,7.89,0,0,1,6,2.3,8.79,8.79,0,0,1,2.19,6.33v2.2H612.64a6.29,6.29,0,0,0,1.51,4.28,5.21,5.21,0,0,0,4,1.5,15,15,0,0,0,3.16-.32,16.68,16.68,0,0,0,3.14-1.07v3.31a12.67,12.67,0,0,1-3,1A18.1,18.1,0,0,1,618,515.91Zm-.74-16.74a4.13,4.13,0,0,0-3.11,1.22,5.87,5.87,0,0,0-1.39,3.59h8.69a5.37,5.37,0,0,0-1.15-3.6A3.89,3.89,0,0,0,617.21,499.17Z" transform="translate(96.25 60.3)"/><path class="a0b3e43b-9b60-43ab-af88-5b94ca871647" d="M633.35,511.85a58.89,58.89,0,0,1-3.05,8.29h-3a83.6,83.6,0,0,0,1.78-8.69h4Z" transform="translate(96.25 60.3)"/><path class="a0b3e43b-9b60-43ab-af88-5b94ca871647" d="M667,502.68c0,4.17-1.16,7.37-3.48,9.57s-5.66,3.32-10,3.32h-7.07v-25.3h7.82q6,0,9.39,3.25T667,502.68Zm-4.36.14q0-9.09-8.5-9.09h-3.58v18.36h2.94Q662.67,512.09,662.67,502.82Z" transform="translate(96.25 60.3)"/><path class="a0b3e43b-9b60-43ab-af88-5b94ca871647" d="M679.5,515.91a9.25,9.25,0,0,1-7-2.6,9.89,9.89,0,0,1-2.52-7.17,10.83,10.83,0,0,1,2.34-7.37,8.07,8.07,0,0,1,6.42-2.68,7.85,7.85,0,0,1,6,2.3,8.76,8.76,0,0,1,2.2,6.33v2.2H674.19a6.34,6.34,0,0,0,1.5,4.28,5.25,5.25,0,0,0,4,1.5,15,15,0,0,0,3.16-.32,16.93,16.93,0,0,0,3.14-1.07v3.31a12.82,12.82,0,0,1-3,1A18.25,18.25,0,0,1,679.5,515.91Zm-.74-16.74a4.13,4.13,0,0,0-3.11,1.22,5.87,5.87,0,0,0-1.39,3.59h8.68a5.31,5.31,0,0,0-1.14-3.6A3.9,3.9,0,0,0,678.76,499.17Z" transform="translate(96.25 60.3)"/><path class="a0b3e43b-9b60-43ab-af88-5b94ca871647" d="M698.39,515.91q-4.33,0-6.6-2.53c-1.5-1.69-2.26-4.12-2.26-7.28s.79-5.69,2.37-7.42,3.85-2.59,6.82-2.59a12.77,12.77,0,0,1,5.45,1.12l-1.23,3.27a12.2,12.2,0,0,0-4.25-1c-3.31,0-5,2.19-5,6.59a7.89,7.89,0,0,0,1.24,4.84,4.29,4.29,0,0,0,3.62,1.61,10.39,10.39,0,0,0,5.14-1.35v3.55a8,8,0,0,1-2.32.92A14.4,14.4,0,0,1,698.39,515.91Z" transform="translate(96.25 60.3)"/><path class="a0b3e43b-9b60-43ab-af88-5b94ca871647" d="M715.69,515.91a9.25,9.25,0,0,1-7-2.6,9.89,9.89,0,0,1-2.52-7.17,10.83,10.83,0,0,1,2.34-7.37,8.07,8.07,0,0,1,6.42-2.68,7.85,7.85,0,0,1,6,2.3,8.76,8.76,0,0,1,2.2,6.33v2.2H710.38a6.34,6.34,0,0,0,1.5,4.28,5.25,5.25,0,0,0,4,1.5,15,15,0,0,0,3.16-.32,16.93,16.93,0,0,0,3.14-1.07v3.31a12.82,12.82,0,0,1-3,1A18.18,18.18,0,0,1,715.69,515.91ZM715,499.17a4.13,4.13,0,0,0-3.11,1.22,5.87,5.87,0,0,0-1.39,3.59h8.68a5.31,5.31,0,0,0-1.14-3.6A3.9,3.9,0,0,0,715,499.17Z" transform="translate(96.25 60.3)"/><path class="a0b3e43b-9b60-43ab-af88-5b94ca871647" d="M743.7,515.57h-4.08V503.8a5.16,5.16,0,0,0-.89-3.3,3.45,3.45,0,0,0-2.83-1.09,4.5,4.5,0,0,0-3.77,1.52q-1.2,1.53-1.2,5.1v9.54h-4.06V496.43h3.18l.57,2.51h.21a5.67,5.67,0,0,1,2.46-2.11,8.13,8.13,0,0,1,3.52-.74q6.9,0,6.89,7Z" transform="translate(96.25 60.3)"/><path class="a0b3e43b-9b60-43ab-af88-5b94ca871647" d="M755.6,512.63a10,10,0,0,0,3-.47v3.06a8.38,8.38,0,0,1-1.74.5,12.2,12.2,0,0,1-2.21.19q-5.77,0-5.78-6.09V499.51h-2.61v-1.8l2.8-1.49,1.39-4.05h2.51v4.26h5.45v3.08h-5.45v10.24a2.88,2.88,0,0,0,.73,2.18A2.72,2.72,0,0,0,755.6,512.63Z" transform="translate(96.25 60.3)"/><path class="a0b3e43b-9b60-43ab-af88-5b94ca871647" d="M771.22,496.09a9.55,9.55,0,0,1,2,.17l-.4,3.79a7.64,7.64,0,0,0-1.8-.21,5.2,5.2,0,0,0-3.95,1.59,5.76,5.76,0,0,0-1.52,4.14v10h-4.06V496.43h3.18l.54,3.38h.21a7.5,7.5,0,0,1,2.48-2.72A5.88,5.88,0,0,1,771.22,496.09Z" transform="translate(96.25 60.3)"/><path class="a0b3e43b-9b60-43ab-af88-5b94ca871647" d="M787.88,515.57l-.81-2.67h-.14a7.72,7.72,0,0,1-2.79,2.38,8.79,8.79,0,0,1-3.59.63,6.09,6.09,0,0,1-4.41-1.52,5.71,5.71,0,0,1-1.58-4.31,5,5,0,0,1,2.2-4.46q2.19-1.5,6.69-1.64l3.31-.11v-1a3.86,3.86,0,0,0-.86-2.74,3.47,3.47,0,0,0-2.65-.91,9.15,9.15,0,0,0-2.83.43,22.47,22.47,0,0,0-2.59,1l-1.32-2.9a13.83,13.83,0,0,1,3.41-1.24,15.88,15.88,0,0,1,3.5-.42,8.29,8.29,0,0,1,5.51,1.59q1.86,1.59,1.86,5v12.89Zm-6-2.77a5,5,0,0,0,3.55-1.24,4.46,4.46,0,0,0,1.34-3.47v-1.66l-2.45.11a8.41,8.41,0,0,0-4.18,1,2.91,2.91,0,0,0-1.31,2.62,2.56,2.56,0,0,0,.76,2A3.27,3.27,0,0,0,781.83,512.8Z" transform="translate(96.25 60.3)"/><path class="a0b3e43b-9b60-43ab-af88-5b94ca871647" d="M799.64,515.57h-4.06V488.65h4.06Z" transform="translate(96.25 60.3)"/><path class="a0b3e43b-9b60-43ab-af88-5b94ca871647" d="M804.33,491.36a2.26,2.26,0,0,1,.6-1.68,2.33,2.33,0,0,1,1.7-.59,2.28,2.28,0,0,1,1.67.59,2.26,2.26,0,0,1,.6,1.68,2.22,2.22,0,0,1-.6,1.64,2.28,2.28,0,0,1-1.67.59,2.33,2.33,0,0,1-1.7-.59A2.22,2.22,0,0,1,804.33,491.36Zm4.31,24.21h-4.07V496.43h4.07Z" transform="translate(96.25 60.3)"/><path class="a0b3e43b-9b60-43ab-af88-5b94ca871647" d="M826.35,515.57H811.84v-2.51l9.67-13.51h-9.09v-3.12h13.66v2.84l-9.47,13.18h9.74Z" transform="translate(96.25 60.3)"/><path class="a0b3e43b-9b60-43ab-af88-5b94ca871647" d="M838,515.91a9.22,9.22,0,0,1-7-2.6,9.89,9.89,0,0,1-2.52-7.17,10.87,10.87,0,0,1,2.33-7.37,8.07,8.07,0,0,1,6.42-2.68,7.86,7.86,0,0,1,6,2.3,8.76,8.76,0,0,1,2.2,6.33v2.2H832.67a6.29,6.29,0,0,0,1.5,4.28,5.25,5.25,0,0,0,4,1.5,15,15,0,0,0,3.16-.32,16.93,16.93,0,0,0,3.14-1.07v3.31a13,13,0,0,1-3,1A18.25,18.25,0,0,1,838,515.91Zm-.75-16.74a4.1,4.1,0,0,0-3.1,1.22,5.81,5.81,0,0,0-1.39,3.59h8.68a5.31,5.31,0,0,0-1.14-3.6A3.91,3.91,0,0,0,837.23,499.17Z" transform="translate(96.25 60.3)"/><path class="a0b3e43b-9b60-43ab-af88-5b94ca871647" d="M855.61,515.91a6.66,6.66,0,0,1-5.59-2.59q-2-2.6-2-7.29c0-3.13.68-5.58,2-7.32a6.74,6.74,0,0,1,5.63-2.62,6.6,6.6,0,0,1,5.75,2.78h.21a23.92,23.92,0,0,1-.3-3.25v-7h4.09v26.92h-3.19l-.71-2.51h-.19A6.49,6.49,0,0,1,855.61,515.91Zm1.09-3.28a4.43,4.43,0,0,0,3.65-1.41,7.43,7.43,0,0,0,1.17-4.58v-.57q0-3.61-1.17-5.14a4.4,4.4,0,0,0-3.69-1.52,3.73,3.73,0,0,0-3.3,1.74,8.84,8.84,0,0,0-1.16,5,8.71,8.71,0,0,0,1.12,4.86A3.81,3.81,0,0,0,856.7,512.63Z" transform="translate(96.25 60.3)"/><path class="a0b3e43b-9b60-43ab-af88-5b94ca871647" d="M879.1,515.57v-25.3h4.13v25.3Z" transform="translate(96.25 60.3)"/><path class="a0b3e43b-9b60-43ab-af88-5b94ca871647" d="M905.43,515.57h-4.09V503.8a5.1,5.1,0,0,0-.89-3.3,3.42,3.42,0,0,0-2.83-1.09,4.51,4.51,0,0,0-3.77,1.52q-1.19,1.53-1.19,5.1v9.54h-4.07V496.43h3.19l.57,2.51h.2a5.73,5.73,0,0,1,2.46-2.11,8.18,8.18,0,0,1,3.53-.74q6.88,0,6.89,7Z" transform="translate(96.25 60.3)"/><path class="a0b3e43b-9b60-43ab-af88-5b94ca871647" d="M917.33,512.63a9.9,9.9,0,0,0,3-.47v3.06a8.27,8.27,0,0,1-1.73.5,12.28,12.28,0,0,1-2.21.19q-5.77,0-5.78-6.09V499.51H908v-1.8l2.8-1.49,1.39-4.05h2.5v4.26h5.45v3.08h-5.45v10.24a2.89,2.89,0,0,0,.74,2.18A2.71,2.71,0,0,0,917.33,512.63Z" transform="translate(96.25 60.3)"/><path class="a0b3e43b-9b60-43ab-af88-5b94ca871647" d="M931.6,515.91a9.23,9.23,0,0,1-7-2.6,9.89,9.89,0,0,1-2.52-7.17,10.83,10.83,0,0,1,2.34-7.37,8,8,0,0,1,6.42-2.68,7.85,7.85,0,0,1,6,2.3,8.76,8.76,0,0,1,2.2,6.33v2.2H926.29a6.29,6.29,0,0,0,1.5,4.28,5.25,5.25,0,0,0,4,1.5,15,15,0,0,0,3.16-.32,16.93,16.93,0,0,0,3.14-1.07v3.31a12.82,12.82,0,0,1-3,1A18.25,18.25,0,0,1,931.6,515.91Zm-.74-16.74a4.11,4.11,0,0,0-3.11,1.22,5.87,5.87,0,0,0-1.39,3.59H935a5.31,5.31,0,0,0-1.14-3.6A3.9,3.9,0,0,0,930.86,499.17Z" transform="translate(96.25 60.3)"/><path class="a0b3e43b-9b60-43ab-af88-5b94ca871647" d="M946.84,515.57h-4.07V488.65h4.07Z" transform="translate(96.25 60.3)"/><path class="a0b3e43b-9b60-43ab-af88-5b94ca871647" d="M955.83,515.57h-4.06V488.65h4.06Z" transform="translate(96.25 60.3)"/><path class="a0b3e43b-9b60-43ab-af88-5b94ca871647" d="M960.52,491.36a2.26,2.26,0,0,1,.6-1.68,2.31,2.31,0,0,1,1.7-.59,2.28,2.28,0,0,1,1.67.59,2.26,2.26,0,0,1,.6,1.68,2.22,2.22,0,0,1-.6,1.64,2.28,2.28,0,0,1-1.67.59,2.31,2.31,0,0,1-1.7-.59A2.22,2.22,0,0,1,960.52,491.36Zm4.31,24.21h-4.07V496.43h4.07Z" transform="translate(96.25 60.3)"/><path class="a0b3e43b-9b60-43ab-af88-5b94ca871647" d="M985.92,496.43v2.23l-3.27.61a5.32,5.32,0,0,1,.74,1.49,6.28,6.28,0,0,1-1.75,6.52A8.53,8.53,0,0,1,976,509a9.27,9.27,0,0,1-1.66-.14,2.28,2.28,0,0,0-1.32,1.9,1.07,1.07,0,0,0,.62,1,5.29,5.29,0,0,0,2.26.33h3.33a7.4,7.4,0,0,1,4.81,1.35,4.73,4.73,0,0,1,1.65,3.89,5.68,5.68,0,0,1-2.68,5c-1.79,1.17-4.38,1.76-7.75,1.76a10.71,10.71,0,0,1-6-1.38,4.47,4.47,0,0,1-2.06-4,4.24,4.24,0,0,1,1.11-3,6,6,0,0,1,3.13-1.66,3.18,3.18,0,0,1-1.35-1.12,2.92,2.92,0,0,1,.08-3.44,7.47,7.47,0,0,1,1.8-1.47,5.31,5.31,0,0,1-2.41-2.08,6.79,6.79,0,0,1,1-8.21,8.25,8.25,0,0,1,5.59-1.71,12.78,12.78,0,0,1,1.71.11,10.21,10.21,0,0,1,1.34.23Zm-15,22.11a2.24,2.24,0,0,0,1.19,2,6.54,6.54,0,0,0,3.33.71,10.08,10.08,0,0,0,4.94-.95A2.86,2.86,0,0,0,982,517.8a1.89,1.89,0,0,0-.89-1.77,7,7,0,0,0-3.31-.53h-3.08a4.32,4.32,0,0,0-2.78.82A2.69,2.69,0,0,0,970.88,518.54Zm1.75-15.91a3.85,3.85,0,0,0,.92,2.76,3.51,3.51,0,0,0,2.66,1c2.35,0,3.53-1.25,3.53-3.77a4.29,4.29,0,0,0-.87-2.88,3.35,3.35,0,0,0-2.66-1,3.4,3.4,0,0,0-2.67,1A4.22,4.22,0,0,0,972.63,502.63Z" transform="translate(96.25 60.3)"/><path class="a0b3e43b-9b60-43ab-af88-5b94ca871647" d="M996.93,515.91a9.25,9.25,0,0,1-7-2.6,9.93,9.93,0,0,1-2.51-7.17,10.82,10.82,0,0,1,2.33-7.37,8.07,8.07,0,0,1,6.42-2.68,7.87,7.87,0,0,1,6,2.3,8.8,8.8,0,0,1,2.2,6.33v2.2H991.62a6.29,6.29,0,0,0,1.51,4.28,5.22,5.22,0,0,0,4,1.5,14.9,14.9,0,0,0,3.16-.32,16.68,16.68,0,0,0,3.14-1.07v3.31a12.67,12.67,0,0,1-3,1A18.1,18.1,0,0,1,996.93,515.91Zm-.74-16.74a4.13,4.13,0,0,0-3.11,1.22,5.93,5.93,0,0,0-1.39,3.59h8.69a5.42,5.42,0,0,0-1.14-3.6A3.93,3.93,0,0,0,996.19,499.17Z" transform="translate(96.25 60.3)"/><path class="a0b3e43b-9b60-43ab-af88-5b94ca871647" d="M1024.94,515.57h-4.08V503.8a5.16,5.16,0,0,0-.89-3.3,3.43,3.43,0,0,0-2.83-1.09,4.51,4.51,0,0,0-3.77,1.52q-1.2,1.53-1.2,5.1v9.54h-4.06V496.43h3.18l.57,2.51h.21a5.73,5.73,0,0,1,2.46-2.11,8.18,8.18,0,0,1,3.53-.74q6.88,0,6.88,7Z" transform="translate(96.25 60.3)"/><path class="a0b3e43b-9b60-43ab-af88-5b94ca871647" d="M1037.43,515.91q-4.34,0-6.6-2.53c-1.5-1.69-2.26-4.12-2.26-7.28s.79-5.69,2.37-7.42,3.85-2.59,6.82-2.59a12.77,12.77,0,0,1,5.45,1.12l-1.23,3.27a12.2,12.2,0,0,0-4.25-1c-3.31,0-5,2.19-5,6.59a7.89,7.89,0,0,0,1.24,4.84,4.29,4.29,0,0,0,3.62,1.61,10.39,10.39,0,0,0,5.14-1.35v3.55a8,8,0,0,1-2.32.92A14.4,14.4,0,0,1,1037.43,515.91Z" transform="translate(96.25 60.3)"/><path class="a0b3e43b-9b60-43ab-af88-5b94ca871647" d="M1054.73,515.91a9.25,9.25,0,0,1-7-2.6,9.89,9.89,0,0,1-2.52-7.17,10.83,10.83,0,0,1,2.34-7.37,8.07,8.07,0,0,1,6.42-2.68,7.89,7.89,0,0,1,6,2.3,8.79,8.79,0,0,1,2.19,6.33v2.2h-12.75a6.29,6.29,0,0,0,1.51,4.28,5.21,5.21,0,0,0,4,1.5,15,15,0,0,0,3.16-.32,16.68,16.68,0,0,0,3.14-1.07v3.31a12.67,12.67,0,0,1-3,1A18.1,18.1,0,0,1,1054.73,515.91Zm-.74-16.74a4.13,4.13,0,0,0-3.11,1.22,5.87,5.87,0,0,0-1.39,3.59h8.69a5.37,5.37,0,0,0-1.15-3.6A3.89,3.89,0,0,0,1054,499.17Z" transform="translate(96.25 60.3)"/></g><g id="f5a02224-950e-4649-85dc-dae21c14d82b" data-name="图层 3"><path class="a0b3e43b-9b60-43ab-af88-5b94ca871647" d="M292,337.24V461.48a8,8,0,0,1-8,8H195.87a8,8,0,0,1-8-8V92a8,8,0,0,1,8-8H314.16Q471.3,84,471.31,197.92q0,63.24-58.33,99.45a8,8,0,0,0-2.35,11.21L509.9,457a8,8,0,0,1-6.66,12.47H404.72a8,8,0,0,1-6.92-4L320.69,333.2a8,8,0,0,0-6.92-4H300A8,8,0,0,0,292,337.24Zm0-94.34a8,8,0,0,0,8,8h11.5q54.59,0,54.58-48.25,0-39.81-53.52-39.81H295.42l-5.7,0A8,8,0,0,0,283.56,176l.19.24a36.09,36.09,0,0,1,8.26,24Z" transform="translate(96.25 60.3)"/><path class="a0b3e43b-9b60-43ab-af88-5b94ca871647" d="M880.53,268.58q0,96.51-53.13,148.71T678,469.5H570.84A17.53,17.53,0,0,1,553.31,452V168.12a88.07,88.07,0,0,0-19.89-54.59l-.56-.66C523.22,101.43,531.26,84,546.23,84l15.19,0H686.73q92.81,0,143.3,47.46T880.53,268.58Zm-108.11,3.69q0-53-21-78.57t-63.68-25.58H675a17.53,17.53,0,0,0-17.53,17.53V366.54A17.53,17.53,0,0,0,675,384.07h5.67q47.46,0,69.61-27.56T772.42,272.27Z" transform="translate(96.25 60.3)"/><path class="a0b3e43b-9b60-43ab-af88-5b94ca871647" d="M949.61,449.8V103.71A19.7,19.7,0,0,1,969.3,84h38.45a52.13,52.13,0,0,1,46.54,47.19V449.8a19.7,19.7,0,0,1-19.7,19.7H969.3A19.7,19.7,0,0,1,949.61,449.8Z" transform="translate(96.25 60.3)"/><path d="M553.31,84" transform="translate(96.25 60.3)"/><path d="M526.75,152.2" transform="translate(96.25 60.3)"/><path d="M799.75,235.2" transform="translate(96.25 60.3)"/><path class="adcf18f4-1b37-4bfe-9e0e-43d0b003ee1f" d="M-96.25,395.7s1093.5-303,1453.5-265.5L1190.75-60.3,16.25,4.2Z" transform="translate(96.25 60.3)"/></g><g id="fd08e00b-458c-4fe0-8651-64d6a66d78de" data-name="图层 3_复制"><g class="b212f897-2777-429e-89a0-2590a920e68a"><path class="b2cc0592-14a4-45b8-bd2a-7e5085dde44e" d="M292,337.24V461.48a8,8,0,0,1-8,8H195.87a8,8,0,0,1-8-8V92a8,8,0,0,1,8-8H314.16Q471.3,84,471.31,197.92q0,63.24-58.33,99.45a8,8,0,0,0-2.35,11.21L509.9,457a8,8,0,0,1-6.66,12.47H404.72a8,8,0,0,1-6.92-4L320.69,333.2a8,8,0,0,0-6.92-4H300A8,8,0,0,0,292,337.24Zm0-94.34a8,8,0,0,0,8,8h11.5q54.59,0,54.58-48.25,0-39.81-53.52-39.81H295.42l-5.7,0A8,8,0,0,0,283.56,176l.19.24a36.09,36.09,0,0,1,8.26,24Z" transform="translate(96.25 60.3)"/><path class="b2cc0592-14a4-45b8-bd2a-7e5085dde44e" d="M880.53,268.58q0,96.51-53.13,148.71T678,469.5H570.84A17.53,17.53,0,0,1,553.31,452V168.12a88.07,88.07,0,0,0-19.89-54.59l-.56-.66C523.22,101.43,531.26,84,546.23,84l15.19,0H686.73q92.81,0,143.3,47.46T880.53,268.58Zm-108.11,3.69q0-53-21-78.57t-63.68-25.58H675a17.53,17.53,0,0,0-17.53,17.53V366.54A17.53,17.53,0,0,0,675,384.07h5.67q47.46,0,69.61-27.56T772.42,272.27Z" transform="translate(96.25 60.3)"/><path class="b2cc0592-14a4-45b8-bd2a-7e5085dde44e" d="M949.61,449.8V103.71A19.7,19.7,0,0,1,969.3,84h38.45a52.13,52.13,0,0,1,46.54,47.19V449.8a19.7,19.7,0,0,1-19.7,19.7H969.3A19.7,19.7,0,0,1,949.61,449.8Z" transform="translate(96.25 60.3)"/><path d="M553.31,84" transform="translate(96.25 60.3)"/><path d="M526.75,152.2" transform="translate(96.25 60.3)"/><path d="M799.75,235.2" transform="translate(96.25 60.3)"/></g></g></svg>